<svg xmlns="http://www.w3.org/2000/svg" viewBox="0 0 132 132" width="132" height="132"
     role="img" aria-label="BASH">
<title>BASH</title>
<style>
  text { font-family: 'JetBrains Mono','Fira Code','SF Mono',SFMono-Regular,ui-monospace,Menlo,Consolas,'DejaVu Sans Mono','Liberation Mono',monospace; }
  .in { animation: rise .75s cubic-bezier(.2,.85,.25,1) both; }
  @keyframes rise { from { opacity: 0; transform: translateY(16px) scale(.94) }
                    to   { opacity: 1; transform: none } }
  .fl { animation: float 7.5s ease-in-out infinite; }
  @keyframes float { 0%,100% { transform: translateY(0) } 50% { transform: translateY(-2.6px) } }
  .tile { transition: transform .38s cubic-bezier(.2,.85,.25,1); transform-origin: 66px 69px; }
  .tile:hover { transform: translateY(-6px) scale(1.035); }
  .card { stroke: #D8E4F4; stroke-width: 1.4; transition: stroke .32s ease; }
  .tile:hover .card { stroke: #0E7490; stroke-width: 1.8; }
  .bar { transform: scaleX(.3); transform-origin: 6px 13.8px;
          transition: transform .5s cubic-bezier(.2,.85,.25,1); }
  .tile:hover .bar { transform: scaleX(1); }
  .glow { opacity: 0; transition: opacity .35s ease; }
  .tile:hover .glow { opacity: .5; }
  .ring { opacity: 0; transition: opacity .35s ease; transform-origin: 66px 58px;
           animation: spin 14s linear infinite; animation-play-state: paused; }
  .tile:hover .ring { opacity: .95; animation-play-state: running; }
  .icon { transition: transform .38s cubic-bezier(.2,.85,.25,1); transform-origin: 66px 58px; }
  .tile:hover .icon { transform: scale(1.12); }
  .lbl { transition: fill .32s ease; }
  .tile:hover .lbl { fill: #0E7490; }
  .hint { opacity: 0; transition: opacity .35s ease; }
  .tile:hover .hint { opacity: 1; }
  .sheen { opacity: 0; }
  .tile:hover .sheen { animation: sheen .95s linear infinite; }
  @keyframes sheen { 0% { transform: translateX(-70px) } 100% { transform: translateX(150px) } }
  .tick { animation: pulse 2.6s ease-in-out infinite; }
</style>
<defs>
  <linearGradient id="bg" x1="0" y1="0" x2="0" y2="1">
    <stop offset="0" stop-color="#FFFFFF"/><stop offset="1" stop-color="#F4F8FE"/></linearGradient>
  <radialGradient id="gl" cx="50%" cy="50%" r="50%">
    <stop offset="0" stop-color="#42901F" stop-opacity=".38"/>
    <stop offset="1" stop-color="#42901F" stop-opacity="0"/></radialGradient>
  <linearGradient id="sh" x1="0" y1="0" x2="1" y2="0">
    <stop offset="0" stop-color="#FFFFFF" stop-opacity="0"/>
    <stop offset=".5" stop-color="#FFFFFF" stop-opacity=".9"/>
    <stop offset="1" stop-color="#FFFFFF" stop-opacity="0"/></linearGradient>
</defs>
<g class="in" transform="translate(0 0)" style="animation-delay:0.45s">
<g class="fl" transform="translate(0 0)" style="animation-delay:-0.85s">
<g class="tile">
  <rect class="card" x="6" y="12" width="120" height="114" rx="15" fill="url(#bg)"/>
  <rect class="bar" x="6" y="12" width="120" height="3.6" rx="1.8" fill="#42901F"/>
  <circle class="glow" cx="66.0" cy="58.0" r="40" fill="url(#gl)"/>
  <circle class="ring" cx="66.0" cy="58.0" r="29" fill="none" stroke="#42901F" stroke-width="1.2"
          stroke-dasharray="5 6" stroke-opacity=".75"/>
  <g class="icon" transform="translate(44.00 36.00) scale(1.83333)">
    <g transform="translate(-0.0 -0.0)"><path fill="#42901F" d="M21.038,4.9l-7.577-4.498C13.009,0.134,12.505,0,12,0c-0.505,0-1.009,0.134-1.462,0.403L2.961,4.9 C2.057,5.437,1.5,6.429,1.5,7.503v8.995c0,1.073,0.557,2.066,1.462,2.603l7.577,4.497C10.991,23.866,11.495,24,12,24 c0.505,0,1.009-0.134,1.461-0.402l7.577-4.497c0.904-0.537,1.462-1.529,1.462-2.603V7.503C22.5,6.429,21.943,5.437,21.038,4.9z M15.17,18.946l0.013,0.646c0.001,0.078-0.05,0.167-0.111,0.198l-0.383,0.22c-0.061,0.031-0.111-0.007-0.112-0.085L14.57,19.29 c-0.328,0.136-0.66,0.169-0.872,0.084c-0.04-0.016-0.057-0.075-0.041-0.142l0.139-0.584c0.011-0.046,0.036-0.092,0.069-0.121 c0.012-0.011,0.024-0.02,0.036-0.026c0.022-0.011,0.043-0.014,0.062-0.006c0.229,0.077,0.521,0.041,0.802-0.101 c0.357-0.181,0.596-0.545,0.592-0.907c-0.003-0.328-0.181-0.465-0.613-0.468c-0.55,0.001-1.064-0.107-1.072-0.917 c-0.007-0.667,0.34-1.361,0.889-1.8l-0.007-0.652c-0.001-0.08,0.048-0.168,0.111-0.2l0.37-0.236 c0.061-0.031,0.111,0.007,0.112,0.087l0.006,0.653c0.273-0.109,0.511-0.138,0.726-0.088c0.047,0.012,0.067,0.076,0.048,0.151 l-0.144,0.578c-0.011,0.044-0.036,0.088-0.065,0.116c-0.012,0.012-0.025,0.021-0.038,0.028c-0.019,0.01-0.038,0.013-0.057,0.009 c-0.098-0.022-0.332-0.073-0.699,0.113c-0.385,0.195-0.52,0.53-0.517,0.778c0.003,0.297,0.155,0.387,0.681,0.396 c0.7,0.012,1.003,0.318,1.01,1.023C16.105,17.747,15.736,18.491,15.17,18.946z M19.143,17.859c0,0.06-0.008,0.116-0.058,0.145 l-1.916,1.164c-0.05,0.029-0.09,0.004-0.09-0.056v-0.494c0-0.06,0.037-0.093,0.087-0.122l1.887-1.129 c0.05-0.029,0.09-0.004,0.09,0.056V17.859z M20.459,6.797l-7.168,4.427c-0.894,0.523-1.553,1.109-1.553,2.187v8.833 c0,0.645,0.26,1.063,0.66,1.184c-0.131,0.023-0.264,0.039-0.398,0.039c-0.42,0-0.833-0.114-1.197-0.33L3.226,18.64 c-0.741-0.44-1.201-1.261-1.201-2.142V7.503c0-0.881,0.46-1.702,1.201-2.142l7.577-4.498c0.363-0.216,0.777-0.33,1.197-0.33 c0.419,0,0.833,0.114,1.197,0.33l7.577,4.498c0.624,0.371,1.046,1.013,1.164,1.732C21.686,6.557,21.12,6.411,20.459,6.797z"/></g>
  </g>
  <text class="lbl" x="66.0" y="98" font-size="11" fill="#3D4B63" text-anchor="middle"
        letter-spacing=".7" font-weight="600">BASH</text>
  <text class="hint" x="66.0" y="114" font-size="7" fill="#42901F" text-anchor="middle"
        letter-spacing="1.6">OPEN DOCS &#8599;</text>
  <path class="sheen" d="M6 27 L20 12 L34 12 L20 27 Z" fill="url(#sh)"/>
  <circle class="tick" cx="18" cy="22" r="1.7" fill="#42901F" style="animation-delay:-0.45s"/>
</g></g></g>
</svg>
