<svg xmlns="http://www.w3.org/2000/svg" viewBox="0 0 148 132" width="148" height="132"
     role="img" aria-label="JUPYTER">
<title>JUPYTER</title>
<style>
  text { font-family: 'JetBrains Mono','Fira Code','SF Mono',SFMono-Regular,ui-monospace,Menlo,Consolas,'DejaVu Sans Mono','Liberation Mono',monospace; }
  .in { animation: rise .75s cubic-bezier(.2,.85,.25,1) both; }
  @keyframes rise { from { opacity: 0; transform: translateY(16px) scale(.94) }
                    to   { opacity: 1; transform: none } }
  .fl { animation: float 7.5s ease-in-out infinite; }
  @keyframes float { 0%,100% { transform: translateY(0) } 50% { transform: translateY(-2.6px) } }
  .tile { transition: transform .38s cubic-bezier(.2,.85,.25,1); transform-origin: 74px 69px; }
  .tile:hover { transform: translateY(-6px) scale(1.035); }
  .card { stroke: #D8E4F4; stroke-width: 1.4; transition: stroke .32s ease; }
  .tile:hover .card { stroke: #0E7490; stroke-width: 1.8; }
  .bar { transform: scaleX(.3); transform-origin: 6px 13.8px;
          transition: transform .5s cubic-bezier(.2,.85,.25,1); }
  .tile:hover .bar { transform: scaleX(1); }
  .glow { opacity: 0; transition: opacity .35s ease; }
  .tile:hover .glow { opacity: .5; }
  .ring { opacity: 0; transition: opacity .35s ease; transform-origin: 74px 58px;
           animation: spin 14s linear infinite; animation-play-state: paused; }
  .tile:hover .ring { opacity: .95; animation-play-state: running; }
  .icon { transition: transform .38s cubic-bezier(.2,.85,.25,1); transform-origin: 74px 58px; }
  .tile:hover .icon { transform: scale(1.12); }
  .lbl { transition: fill .32s ease; }
  .tile:hover .lbl { fill: #0E7490; }
  .hint { opacity: 0; transition: opacity .35s ease; }
  .tile:hover .hint { opacity: 1; }
  .sheen { opacity: 0; }
  .tile:hover .sheen { animation: sheen .95s linear infinite; }
  @keyframes sheen { 0% { transform: translateX(-70px) } 100% { transform: translateX(150px) } }
  .tick { animation: pulse 2.6s ease-in-out infinite; }
</style>
<defs>
  <linearGradient id="bg" x1="0" y1="0" x2="0" y2="1">
    <stop offset="0" stop-color="#FFFFFF"/><stop offset="1" stop-color="#F4F8FE"/></linearGradient>
  <radialGradient id="gl" cx="50%" cy="50%" r="50%">
    <stop offset="0" stop-color="#CE6420" stop-opacity=".38"/>
    <stop offset="1" stop-color="#CE6420" stop-opacity="0"/></radialGradient>
  <linearGradient id="sh" x1="0" y1="0" x2="1" y2="0">
    <stop offset="0" stop-color="#FFFFFF" stop-opacity="0"/>
    <stop offset=".5" stop-color="#FFFFFF" stop-opacity=".9"/>
    <stop offset="1" stop-color="#FFFFFF" stop-opacity="0"/></linearGradient>
</defs>
<g class="in" transform="translate(0 0)" style="animation-delay:0.33s">
<g class="fl" transform="translate(0 0)" style="animation-delay:-0.63s">
<g class="tile">
  <rect class="card" x="6" y="12" width="136" height="114" rx="15" fill="url(#bg)"/>
  <rect class="bar" x="6" y="12" width="136" height="3.6" rx="1.8" fill="#CE6420"/>
  <circle class="glow" cx="74.0" cy="58.0" r="40" fill="url(#gl)"/>
  <circle class="ring" cx="74.0" cy="58.0" r="29" fill="none" stroke="#CE6420" stroke-width="1.2"
          stroke-dasharray="5 6" stroke-opacity=".75"/>
  <g class="icon" transform="translate(52.00 36.00) scale(1.83333)">
    <g transform="translate(-0.0 -0.0)"><path fill="#CE6420" d="M7.157 22.201A1.784 1.799 0 0 1 5.374 24a1.784 1.799 0 0 1-1.784-1.799 1.784 1.799 0 0 1 1.784-1.799 1.784 1.799 0 0 1 1.783 1.799zM20.582 1.427a1.415 1.427 0 0 1-1.415 1.428 1.415 1.427 0 0 1-1.416-1.428A1.415 1.427 0 0 1 19.167 0a1.415 1.427 0 0 1 1.415 1.427zM4.992 3.336A1.047 1.056 0 0 1 3.946 4.39a1.047 1.056 0 0 1-1.047-1.055A1.047 1.056 0 0 1 3.946 2.28a1.047 1.056 0 0 1 1.046 1.056zm7.336 1.517c3.769 0 7.06 1.38 8.768 3.424a9.363 9.363 0 0 0-3.393-4.547 9.238 9.238 0 0 0-5.377-1.728A9.238 9.238 0 0 0 6.95 3.73a9.363 9.363 0 0 0-3.394 4.547c1.713-2.04 5.004-3.424 8.772-3.424zm.001 13.295c-3.768 0-7.06-1.381-8.768-3.425a9.363 9.363 0 0 0 3.394 4.547A9.238 9.238 0 0 0 12.33 21a9.238 9.238 0 0 0 5.377-1.729 9.363 9.363 0 0 0 3.393-4.547c-1.712 2.044-5.003 3.425-8.772 3.425Z"/></g>
  </g>
  <text class="lbl" x="74.0" y="98" font-size="11" fill="#3D4B63" text-anchor="middle"
        letter-spacing=".7" font-weight="600">JUPYTER</text>
  <text class="hint" x="74.0" y="114" font-size="7" fill="#CE6420" text-anchor="middle"
        letter-spacing="1.6">OPEN DOCS &#8599;</text>
  <path class="sheen" d="M6 27 L20 12 L34 12 L20 27 Z" fill="url(#sh)"/>
  <circle class="tick" cx="18" cy="22" r="1.7" fill="#CE6420" style="animation-delay:-0.33s"/>
</g></g></g>
</svg>
