<svg xmlns="http://www.w3.org/2000/svg" viewBox="0 0 1000 210" width="1000" height="210" role="img" aria-label="Current focus: deep learning, computer vision, scientific computing, quantum computing, full stack, research">
<title>KCN_LAB :: CURRENT FOCUS</title>
<style>
  text { font-family: 'JetBrains Mono','Fira Code','SF Mono',SFMono-Regular,ui-monospace,Menlo,Consolas,'DejaVu Sans Mono','Liberation Mono',monospace; }
  .spin { animation: spin 18s linear infinite; transform-box: fill-box; transform-origin: center; }
  .spin-s { animation: spin 9s linear infinite reverse; transform-box: fill-box; transform-origin: center; }
  @keyframes spin { to { transform: rotate(360deg) } }
  .blink { animation: blink 1.05s steps(1) infinite; }
  @keyframes blink { 50% { opacity: 0 } }
  .pulse { animation: pulse 2s ease-in-out infinite; }
  @keyframes pulse { 0%,100% { opacity: .35 } 50% { opacity: 1 } }
  .rise { animation: rise .8s cubic-bezier(.2,.8,.2,1) both; }
  @keyframes rise { from { opacity: 0; transform: translateY(12px) } to { opacity: 1; transform: none } }
  .sweep { animation: sweep 5s cubic-bezier(.4,0,.6,1) infinite; }
  @keyframes sweep { 0% { transform: translateX(-260px) } 55%,100% { transform: translateX(1100px) } }
</style>
<defs>
  <linearGradient id="holo" x1="0" y1="0" x2="1" y2="0">
    <stop offset="0" stop-color="#22D3EE"/><stop offset=".38" stop-color="#60A5FA"/>
    <stop offset=".68" stop-color="#A78BFA"/><stop offset="1" stop-color="#F472B6"/></linearGradient>
  <linearGradient id="holoV" x1="0" y1="0" x2="0" y2="1">
    <stop offset="0" stop-color="#A78BFA"/><stop offset=".55" stop-color="#60A5FA"/>
    <stop offset="1" stop-color="#22D3EE"/></linearGradient>
  <linearGradient id="paper" x1="0" y1="0" x2="0" y2="1">
    <stop offset="0" stop-color="#FFFFFF"/><stop offset="1" stop-color="#F4F8FE"/></linearGradient>
  <linearGradient id="sheen" x1="0" y1="0" x2="1" y2="0">
    <stop offset="0" stop-color="#FFFFFF" stop-opacity="0"/>
    <stop offset=".5" stop-color="#FFFFFF" stop-opacity=".85"/>
    <stop offset="1" stop-color="#FFFFFF" stop-opacity="0"/></linearGradient>
  <pattern id="grid" width="32" height="32" patternUnits="userSpaceOnUse">
    <path d="M32 0H0V32" fill="none" stroke="#0E7490" stroke-opacity=".07"/></pattern>
  <radialGradient id="gc"><stop offset="0" stop-color="#22D3EE" stop-opacity=".22"/>
    <stop offset="1" stop-color="#22D3EE" stop-opacity="0"/></radialGradient>
  <radialGradient id="gv"><stop offset="0" stop-color="#A78BFA" stop-opacity=".20"/>
    <stop offset="1" stop-color="#A78BFA" stop-opacity="0"/></radialGradient>
  <radialGradient id="gm"><stop offset="0" stop-color="#F472B6" stop-opacity=".18"/>
    <stop offset="1" stop-color="#F472B6" stop-opacity="0"/></radialGradient>
  <filter id="glow" x="-60%" y="-60%" width="220%" height="220%">
    <feGaussianBlur stdDeviation="2.2" result="b"/>
    <feMerge><feMergeNode in="b"/><feMergeNode in="SourceGraphic"/></feMerge></filter>
  <filter id="soft" x="-40%" y="-40%" width="180%" height="180%">
    <feGaussianBlur stdDeviation="7"/></filter>
</defs>
<rect x="0" y="0" width="1000" height="210" rx="18" fill="url(#paper)"/><rect x="0" y="0" width="1000" height="4" rx="2" fill="url(#holo)"/><rect x=".75" y=".75" width="998.5" height="208.5" rx="17" fill="none" stroke="#D8E4F4" stroke-width="1.5"/>
<circle cx="464.5" cy="81.0" r="0.8" fill="#C4B5FD" class="tw" style="animation-delay:-4.33s;animation-duration:2.62s"/><circle cx="502.7" cy="172.3" r="0.6" fill="#F9A8D4" class="tw" style="animation-delay:-2.77s;animation-duration:4.33s"/><circle cx="59.3" cy="81.9" r="1.2" fill="#A5F3FC" class="tw" style="animation-delay:-0.79s;animation-duration:3.27s"/><circle cx="126.5" cy="104.1" r="0.6" fill="#A5F3FC" class="tw" style="animation-delay:-3.95s;animation-duration:5.08s"/><circle cx="902.2" cy="51.7" r="0.8" fill="#A5F3FC" class="tw" style="animation-delay:-4.45s;animation-duration:4.76s"/><circle cx="894.9" cy="85.0" r="1.0" fill="#93C5FD" class="tw" style="animation-delay:-1.00s;animation-duration:5.08s"/><circle cx="864.2" cy="25.5" r="1.2" fill="#A5F3FC" class="tw" style="animation-delay:-0.70s;animation-duration:3.26s"/><circle cx="726.8" cy="164.0" r="0.6" fill="#93C5FD" class="tw" style="animation-delay:-3.82s;animation-duration:3.15s"/><circle cx="838.1" cy="73.5" r="0.6" fill="#C4B5FD" class="tw" style="animation-delay:-2.70s;animation-duration:2.65s"/><circle cx="101.4" cy="102.4" r="0.8" fill="#A5F3FC" class="tw" style="animation-delay:-0.34s;animation-duration:3.14s"/><circle cx="754.3" cy="137.9" r="0.8" fill="#C4B5FD" class="tw" style="animation-delay:-4.70s;animation-duration:4.61s"/><circle cx="59.6" cy="63.0" r="0.8" fill="#F9A8D4" class="tw" style="animation-delay:-3.68s;animation-duration:4.21s"/><circle cx="52.9" cy="167.1" r="1.2" fill="#C4B5FD" class="tw" style="animation-delay:-0.81s;animation-duration:4.01s"/><circle cx="726.6" cy="163.1" r="0.6" fill="#F9A8D4" class="tw" style="animation-delay:-0.55s;animation-duration:5.07s"/><circle cx="370.9" cy="52.5" r="0.8" fill="#93C5FD" class="tw" style="animation-delay:-1.89s;animation-duration:4.30s"/><circle cx="20.6" cy="35.4" r="0.8" fill="#A5F3FC" class="tw" style="animation-delay:-1.35s;animation-duration:4.88s"/>
<text x="30" y="44" font-size="14.5" font-weight="700" fill="#0B1220" letter-spacing="2"><tspan fill="#2563EB">◆</tspan> CURRENT FOCUS</text>
<text x="970" y="44" font-size="10.5" fill="#7C8CA6" text-anchor="end" letter-spacing="1.4">ACTIVE PROTOCOLS · 06</text>
<line x1="30" y1="56" x2="970" y2="56" stroke="#D8E4F4"/>
<g class="rise" style="animation-delay:0.00s">
<rect x="30" y="78" width="300" height="52" rx="12" fill="#FFFFFF" stroke="#7C3AED" stroke-opacity=".45"/>
<circle cx="60" cy="104" r="17" fill="#7C3AED" fill-opacity=".1"/>
<circle cx="60" cy="104" r="17" fill="none" stroke="#7C3AED" stroke-opacity=".5" stroke-width="1.2" stroke-dasharray="4 5" class="spin"/>
<path d="M12 5v5M5 19h14M7 10h10M12 14v5M7 10l5 4 5-4" transform="translate(50.5 94.5) scale(0.7917)" fill="none" stroke="#7C3AED" stroke-width="2.15" stroke-linecap="round" stroke-linejoin="round"/>
<text x="88" y="100" font-size="12.5" font-weight="700" fill="#0B1220" letter-spacing=".8">DEEP LEARNING</text>
<text x="88" y="118" font-size="10.5" fill="#7C8CA6" letter-spacing=".8">neural nets · training loops</text>
</g>
<g class="rise" style="animation-delay:0.10s">
<rect x="350" y="78" width="300" height="52" rx="12" fill="#FFFFFF" stroke="#0E7490" stroke-opacity=".45"/>
<circle cx="380" cy="104" r="17" fill="#0E7490" fill-opacity=".1"/>
<circle cx="380" cy="104" r="17" fill="none" stroke="#0E7490" stroke-opacity=".5" stroke-width="1.2" stroke-dasharray="4 5" class="spin"/>
<path d="M2 12s3.6-6 10-6 10 6 10 6-3.6 6-10 6-10-6-10-6zM12 9a3 3 0 1 0 0 6 3 3 0 0 0 0-6z" transform="translate(370.5 94.5) scale(0.7917)" fill="none" stroke="#0E7490" stroke-width="2.15" stroke-linecap="round" stroke-linejoin="round"/>
<text x="408" y="100" font-size="12.5" font-weight="700" fill="#0B1220" letter-spacing=".8">COMPUTER VISION</text>
<text x="408" y="118" font-size="10.5" fill="#7C8CA6" letter-spacing=".8">detection · segmentation</text>
</g>
<g class="rise" style="animation-delay:0.20s">
<rect x="670" y="78" width="300" height="52" rx="12" fill="#FFFFFF" stroke="#2563EB" stroke-opacity=".45"/>
<circle cx="700" cy="104" r="17" fill="#2563EB" fill-opacity=".1"/>
<circle cx="700" cy="104" r="17" fill="none" stroke="#2563EB" stroke-opacity=".5" stroke-width="1.2" stroke-dasharray="4 5" class="spin"/>
<path d="M2 15l4-7 4 10 4-13 4 9 4-4" transform="translate(690.5 94.5) scale(0.7917)" fill="none" stroke="#2563EB" stroke-width="2.15" stroke-linecap="round" stroke-linejoin="round"/>
<text x="728" y="100" font-size="12.5" font-weight="700" fill="#0B1220" letter-spacing=".8">SCIENTIFIC COMPUTING</text>
<text x="728" y="118" font-size="10.5" fill="#7C8CA6" letter-spacing=".8">numerical · simulation</text>
</g>
<g class="rise" style="animation-delay:0.30s">
<rect x="30" y="140" width="300" height="52" rx="12" fill="#FFFFFF" stroke="#DB2777" stroke-opacity=".45"/>
<circle cx="60" cy="166" r="17" fill="#DB2777" fill-opacity=".1"/>
<circle cx="60" cy="166" r="17" fill="none" stroke="#DB2777" stroke-opacity=".5" stroke-width="1.2" stroke-dasharray="4 5" class="spin"/>
<path d="M12 12a2 2 0 1 0 0-4 2 0 0 0 0 4zM4 6c4 3 12 6 16 10M20 6c-4 3-12 6-16 10" transform="translate(50.5 156.5) scale(0.7917)" fill="none" stroke="#DB2777" stroke-width="2.15" stroke-linecap="round" stroke-linejoin="round"/>
<text x="88" y="162" font-size="12.5" font-weight="700" fill="#0B1220" letter-spacing=".8">QUANTUM COMPUTING</text>
<text x="88" y="180" font-size="10.5" fill="#7C8CA6" letter-spacing=".8">qubits · circuits</text>
</g>
<g class="rise" style="animation-delay:0.40s">
<rect x="350" y="140" width="300" height="52" rx="12" fill="#FFFFFF" stroke="#047857" stroke-opacity=".45"/>
<circle cx="380" cy="166" r="17" fill="#047857" fill-opacity=".1"/>
<circle cx="380" cy="166" r="17" fill="none" stroke="#047857" stroke-opacity=".5" stroke-width="1.2" stroke-dasharray="4 5" class="spin"/>
<path d="M12 3l9 5-9 5-9-5zM3 13l9 5 9-5" transform="translate(370.5 156.5) scale(0.7917)" fill="none" stroke="#047857" stroke-width="2.15" stroke-linecap="round" stroke-linejoin="round"/>
<text x="408" y="162" font-size="12.5" font-weight="700" fill="#0B1220" letter-spacing=".8">FULL STACK</text>
<text x="408" y="180" font-size="10.5" fill="#7C8CA6" letter-spacing=".8">interfaces · APIs</text>
</g>
<g class="rise" style="animation-delay:0.50s">
<rect x="670" y="140" width="300" height="52" rx="12" fill="#FFFFFF" stroke="#B45309" stroke-opacity=".45"/>
<circle cx="700" cy="166" r="17" fill="#B45309" fill-opacity=".1"/>
<circle cx="700" cy="166" r="17" fill="none" stroke="#B45309" stroke-opacity=".5" stroke-width="1.2" stroke-dasharray="4 5" class="spin"/>
<path d="M10.5 3a7.5 7.5 0 1 0 0 15 7.5 7.5 0 0 0 0-15zM21 21l-6-6" transform="translate(690.5 156.5) scale(0.7917)" fill="none" stroke="#B45309" stroke-width="2.15" stroke-linecap="round" stroke-linejoin="round"/>
<text x="728" y="162" font-size="12.5" font-weight="700" fill="#0B1220" letter-spacing=".8">RESEARCH</text>
<text x="728" y="180" font-size="10.5" fill="#7C8CA6" letter-spacing=".8">reading · experimenting</text>
</g>
</svg>
