<svg xmlns="http://www.w3.org/2000/svg" viewBox="0 0 1000 392" width="1000" height="392" role="img" aria-label="Boot terminal: physics active, AI/ML and deep learning learning, quantum computing exploring, curiosity online — curiosity defined in binary terms">
<title>KCN_LAB :: TERMINAL</title>
<style>
  text { font-family: 'JetBrains Mono','Fira Code','SF Mono',SFMono-Regular,ui-monospace,Menlo,Consolas,'DejaVu Sans Mono','Liberation Mono',monospace; }
  .spin { animation: spin 18s linear infinite; transform-box: fill-box; transform-origin: center; }
  .spin-s { animation: spin 9s linear infinite reverse; transform-box: fill-box; transform-origin: center; }
  @keyframes spin { to { transform: rotate(360deg) } }
  .blink { animation: blink 1.05s steps(1) infinite; }
  @keyframes blink { 50% { opacity: 0 } }
  .pulse { animation: pulse 2s ease-in-out infinite; }
  @keyframes pulse { 0%,100% { opacity: .35 } 50% { opacity: 1 } }
  .rise { animation: rise .8s cubic-bezier(.2,.8,.2,1) both; }
  @keyframes rise { from { opacity: 0; transform: translateY(12px) } to { opacity: 1; transform: none } }
  .sweep { animation: sweep 5s cubic-bezier(.4,0,.6,1) infinite; }
  @keyframes sweep { 0% { transform: translateX(-260px) } 55%,100% { transform: translateX(1100px) } }
</style>
<defs>
  <linearGradient id="holo" x1="0" y1="0" x2="1" y2="0">
    <stop offset="0" stop-color="#22D3EE"/><stop offset=".38" stop-color="#60A5FA"/>
    <stop offset=".68" stop-color="#A78BFA"/><stop offset="1" stop-color="#F472B6"/></linearGradient>
  <linearGradient id="holoV" x1="0" y1="0" x2="0" y2="1">
    <stop offset="0" stop-color="#A78BFA"/><stop offset=".55" stop-color="#60A5FA"/>
    <stop offset="1" stop-color="#22D3EE"/></linearGradient>
  <linearGradient id="paper" x1="0" y1="0" x2="0" y2="1">
    <stop offset="0" stop-color="#FFFFFF"/><stop offset="1" stop-color="#F4F8FE"/></linearGradient>
  <linearGradient id="sheen" x1="0" y1="0" x2="1" y2="0">
    <stop offset="0" stop-color="#FFFFFF" stop-opacity="0"/>
    <stop offset=".5" stop-color="#FFFFFF" stop-opacity=".85"/>
    <stop offset="1" stop-color="#FFFFFF" stop-opacity="0"/></linearGradient>
  <pattern id="grid" width="32" height="32" patternUnits="userSpaceOnUse">
    <path d="M32 0H0V32" fill="none" stroke="#0E7490" stroke-opacity=".07"/></pattern>
  <radialGradient id="gc"><stop offset="0" stop-color="#22D3EE" stop-opacity=".22"/>
    <stop offset="1" stop-color="#22D3EE" stop-opacity="0"/></radialGradient>
  <radialGradient id="gv"><stop offset="0" stop-color="#A78BFA" stop-opacity=".20"/>
    <stop offset="1" stop-color="#A78BFA" stop-opacity="0"/></radialGradient>
  <radialGradient id="gm"><stop offset="0" stop-color="#F472B6" stop-opacity=".18"/>
    <stop offset="1" stop-color="#F472B6" stop-opacity="0"/></radialGradient>
  <filter id="glow" x="-60%" y="-60%" width="220%" height="220%">
    <feGaussianBlur stdDeviation="2.2" result="b"/>
    <feMerge><feMergeNode in="b"/><feMergeNode in="SourceGraphic"/></feMerge></filter>
  <filter id="soft" x="-40%" y="-40%" width="180%" height="180%">
    <feGaussianBlur stdDeviation="7"/></filter>
</defs>
<rect x="0" y="0" width="1000" height="392" rx="18" fill="url(#paper)"/><rect x="0" y="0" width="1000" height="4" rx="2" fill="url(#holo)"/><rect x=".75" y=".75" width="998.5" height="390.5" rx="17" fill="none" stroke="#D8E4F4" stroke-width="1.5"/>
<circle cx="248.4" cy="210.5" r="1.0" fill="#A5F3FC" class="tw" style="animation-delay:-3.13s;animation-duration:2.78s"/><circle cx="32.6" cy="313.1" r="1.0" fill="#C4B5FD" class="tw" style="animation-delay:-0.96s;animation-duration:4.61s"/><circle cx="539.3" cy="212.4" r="1.1" fill="#C4B5FD" class="tw" style="animation-delay:-1.16s;animation-duration:3.02s"/><circle cx="908.8" cy="156.5" r="0.6" fill="#93C5FD" class="tw" style="animation-delay:-0.80s;animation-duration:5.28s"/><circle cx="61.1" cy="293.0" r="1.0" fill="#A5F3FC" class="tw" style="animation-delay:-2.97s;animation-duration:5.18s"/><circle cx="392.1" cy="295.8" r="1.1" fill="#A5F3FC" class="tw" style="animation-delay:-3.64s;animation-duration:4.22s"/><circle cx="945.5" cy="67.0" r="1.0" fill="#93C5FD" class="tw" style="animation-delay:-0.18s;animation-duration:3.99s"/><circle cx="267.7" cy="255.2" r="1.0" fill="#A5F3FC" class="tw" style="animation-delay:-2.54s;animation-duration:3.68s"/><circle cx="356.9" cy="224.8" r="0.8" fill="#F9A8D4" class="tw" style="animation-delay:-3.41s;animation-duration:5.20s"/><circle cx="842.1" cy="366.8" r="0.8" fill="#F9A8D4" class="tw" style="animation-delay:-4.82s;animation-duration:5.13s"/><circle cx="566.3" cy="269.8" r="0.8" fill="#F9A8D4" class="tw" style="animation-delay:-1.42s;animation-duration:2.78s"/><circle cx="839.8" cy="366.4" r="0.6" fill="#F9A8D4" class="tw" style="animation-delay:-4.00s;animation-duration:3.75s"/><circle cx="164.7" cy="122.9" r="1.1" fill="#93C5FD" class="tw" style="animation-delay:-0.22s;animation-duration:4.32s"/><circle cx="63.1" cy="271.5" r="1.0" fill="#F9A8D4" class="tw" style="animation-delay:-2.53s;animation-duration:5.40s"/>
<rect x="16" y="16" width="640" height="360" rx="12" fill="#FFFFFF" stroke="#D8E4F4"/>
<rect x="16" y="16" width="640" height="30" rx="12" fill="#EDF3FB"/>
<rect x="16" y="38" width="640" height="8" fill="#EDF3FB"/>
<circle cx="36" cy="31" r="5" fill="#DB2777" fill-opacity=".75"/>
<circle cx="54" cy="31" r="5" fill="#B45309" fill-opacity=".75"/>
<circle cx="72" cy="31" r="5" fill="#047857" fill-opacity=".75"/>
<text x="336" y="35" font-size="11" fill="#7C8CA6" text-anchor="middle" letter-spacing="1.6">kcn@lab — zsh — 80×24</text>
<g class="rise" style="animation-delay:0.00s"><text x="34" y="76" font-size="13.5" fill="#0B1220" xml:space="preserve">kcn@lab:~$ ./boot --profile KCN-369</text></g>
<g class="rise" style="animation-delay:0.35s"><text x="34" y="100" font-size="13.5" fill="#047857" xml:space="preserve">[ OK ] core.physics ............... ACTIVE</text></g>
<g class="rise" style="animation-delay:0.60s"><text x="34" y="124" font-size="13.5" fill="#2563EB" xml:space="preserve">[ OK ] module.ai_ml ............... LEARNING</text></g>
<g class="rise" style="animation-delay:0.85s"><text x="34" y="148" font-size="13.5" fill="#2563EB" xml:space="preserve">[ OK ] module.deep_learning ....... LEARNING</text></g>
<g class="rise" style="animation-delay:1.10s"><text x="34" y="172" font-size="13.5" fill="#B45309" xml:space="preserve">[ OK ] module.quantum ............. EXPLORING</text></g>
<g class="rise" style="animation-delay:1.35s"><text x="34" y="196" font-size="13.5" fill="#DB2777" xml:space="preserve">[ OK ] engine.curiosity ........... ONLINE</text></g>
<g class="rise" style="animation-delay:1.60s"><text x="34" y="220" font-size="13.5" fill="#0B1220" xml:space="preserve">kcn@lab:~$ cat identity.bin</text></g>
<g class="rise" style="animation-delay:1.85s"><text x="34" y="244" font-size="13.5" fill="#7C8CA6" xml:space="preserve"># curiosity defined in binary terms (0/1) ::</text></g>
<g class="rise" style="animation-delay:2.10s"><text x="34" y="268" font-size="13.5" fill="#B91C1C" xml:space="preserve">  0  ≈  stay simple, accept weakness, give up</text></g>
<g class="rise" style="animation-delay:2.35s"><text x="34" y="292" font-size="13.5" fill="#0E7490" xml:space="preserve">  1  ≈  do whatever it takes to satisfy curiosity !!</text></g>
<g class="rise" style="animation-delay:2.60s"><text x="34" y="316" font-size="13.5" fill="#0B1220" xml:space="preserve">kcn@lab:~$ echo $CHOICE</text></g>
<g class="rise" style="animation-delay:2.85s"><text x="34" y="340" font-size="13.5" fill="#047857" xml:space="preserve">>> 1    // curiosity.mode = MAX</text></g>
<g class="rise" style="animation-delay:3.1s"><text x="34" y="364" font-size="13.5" fill="#047857">kcn@lab:~$ </text><rect x="128" y="351" width="9" height="16" fill="#0E7490" class="blink"/></g>
<rect x="672" y="16" width="312" height="360" rx="12" fill="#EDF3FB" stroke="#D8E4F4"/>
<text x="690" y="46" font-size="12" fill="#7C3AED" letter-spacing="2.4">SYS.MONITOR</text>
<circle cx="962" cy="42" r="4.4" fill="#047857" class="pulse"/>
<text x="952" y="46" font-size="10.5" fill="#047857" text-anchor="end" letter-spacing="1.4">LIVE</text>
<text x="690" y="78" font-size="12" fill="#7C8CA6" letter-spacing="1.2">USER</text>
<text x="760" y="78" font-size="12" fill="#0B1220" font-weight="600">KANHU_NAYAK</text>
<text x="690" y="102" font-size="12" fill="#7C8CA6" letter-spacing="1.2">HOST</text>
<text x="760" y="102" font-size="12" fill="#0B1220" font-weight="600">KCN_LAB</text>
<text x="690" y="126" font-size="12" fill="#7C8CA6" letter-spacing="1.2">ROLE</text>
<text x="760" y="126" font-size="12" fill="#0B1220" font-weight="600">UG · RESEARCHER</text>
<text x="690" y="150" font-size="12" fill="#7C8CA6" letter-spacing="1.2">MODE</text>
<text x="760" y="150" font-size="12" fill="#B45309" font-weight="600">EXPLORATION</text>
<text x="690" y="174" font-size="12" fill="#7C8CA6" letter-spacing="1.2">CORE</text>
<text x="760" y="174" font-size="12" fill="#0E7490" font-weight="600">PHYSICS × COMPUTE</text>
<text x="690" y="198" font-size="12" fill="#7C8CA6" letter-spacing="1.2">LOOP</text>
<text x="760" y="198" font-size="12" fill="#7C3AED" font-weight="600">LEARN→BUILD→EXPERIMENT</text>
<rect x="686" y="232" width="284" height="126" rx="8" fill="#FFFFFF" stroke="#D8E4F4"/>
<polyline points="686,310.0 690,320.01784618515364 694,307.71670519071455 698,301.2113214918849 702,315.51550292616366 706,318.3848925824211 710,302.7626894387225 714,302.4300582271323 718,315.7885616202404 722,310.1029550020263 726,296.68242557023 730,306.9438114474792 734,322.66441704072537 738,316.97145781069753 742,312.8994949653503 746,327.50738918678945 750,328.9868553278296 754,305.6149386443349 758,292.75796839045216 762,297.62275591388385 766,290.42132320512985 770,279.0423121300486 774,295.36244990709787 778,322.0038354825143 782,325.1316512179578 786,321.82358759894134 790,333.6372991925458 794,334.3031105554668 798,310.699589537131 802,298.16136080920137 806,307.6138222014342 810,306.2007036860163 814,293.50255059242596 818,301.29827051911514 822,318.7118966099585 826,313.4411654868081 830,302.41540613071567 834,312.8098725182572 838,321.1475706488954 842,307.33208848422424 846,301.0144350744301 850,315.2719729755482 854,317.28307081336976 858,302.3382634525665 862,304.27179788568645 866,318.89291885542985 870,313.3403314171277 874,300.2374445391546 878,309.2003801613965 882,319.99623405010215 886,308.24223890615434 890,300.4656527671453 894,314.2174051773131 898,318.44751656474756 902,303.60497206392444 906,303.199742691414 910,318.1470109668337 914,314.7007171085476 918,300.6416325330582 922,307.7108363098327 926,319.94827071205873 930,309.7256111333761 934,300.12243955356325 938,312.8197284713438 942,319.15094763430795 946,304.8221730283178 950,302.18332129412465 954,317.1920989663431 958,315.9633539844176 962,301.2712103735194 966,306.2859589857614 970,319.68585709926924 974,311.2181022948711" fill="none" stroke="#0E7490" stroke-width="1.8" stroke-opacity=".85" class="scope"/>
<polyline points="686,332.9126253754756 690,332.5487588292109 694,323.3598104024945 698,310.91967290728235 702,302.77436681776777 706,303.86472550847753 710,313.5293520288172 714,325.90581361821773 718,333.48671475250376 722,331.6735825294125 726,321.56623862560394 730,309.29566222577006 734,302.30502031893616 738,304.83474248050067 742,315.35033319282707 746,327.4731762353156 750,333.8497176911179 754,330.6120330780051 758,319.7240584367911 762,307.7902930824328 766,302.04959894333444 770,305.9842040516532 774,317.2074297459461 778,328.91141792109016 782,333.9966864022827 786,329.3785795664957 790,317.85837905135355 794,306.42408390329206 798,302.01158412581395 802,307.29744287395164 806,319.0753291604076 810,330.20093520767364 814,333.92561767858496 818,327.99003416666227 822,315.99462998245707 826,305.21565634144616 830,302.1914940145142 834,308.7565592888683 838,320.9285716636894 842,331.3241517649245 846,333.63748019827614 850,326.46532297792027 854,314.1582144327395 858,304.1814814609127 862,302.58687640841987 866,310.34166530258534 870,322.74189725935025 874,332.2657579686631 878,333.1362013220305 882,324.8252280615131 886,312.3741630445309 890,303.3356552333498 894,303.19234218125877 898,312.03115566258214 902,324.4905900248855 906,333.0129195733369 910,332.4286135623809 914,323.0921041776397 918,310.66679272813167 922,302.6897064076722 926,303.99963873616883 930,313.80200234073726 934,326.15081499376697 938,333.5554526448727 942,331.5243614554628 946,321.28957408644163 950,309.05937521837404 954,302.2524393713298 958,304.99776248993436 962,315.63006840909395 966,327.69994302990955 970,333.8859623693526 974,330.43577010441953" fill="none" stroke="#DB2777" stroke-width="1.2" stroke-opacity=".7"/>
<line x1="733" y1="232" x2="733" y2="358" stroke="#E4ECF7"/>
<line x1="780" y1="232" x2="780" y2="358" stroke="#E4ECF7"/>
<line x1="827" y1="232" x2="827" y2="358" stroke="#E4ECF7"/>
<line x1="874" y1="232" x2="874" y2="358" stroke="#E4ECF7"/>
<line x1="921" y1="232" x2="921" y2="358" stroke="#E4ECF7"/>
<line x1="686" y1="295" x2="970" y2="295" stroke="#E4ECF7"/>
<text x="694" y="252" font-size="10" fill="#7C8CA6" letter-spacing="1.2">ψ(x,t) :: curiosity.signal</text>
</svg>
